<svg id="ALL" 
  xmlns="http://www.w3.org/2000/svg" viewBox="0 0 750 155">
  <title>KEYPON</title>
  <g id="MAIN">
    <g id="IMG">
      <g id="CAT">
        <path id="CAT_PATH" d="M687.2,133.45c-1.69,1.16-3.82,1.76-5.59.74a4,4,0,0,1-1.11-6.3,18.62,18.62,0,0,1,2.88-3c.73-.57,2.17-2.07,2.21-3a33.57,33.57,0,0,0-.77-8.24c-1.07-5.93-2.05-10.66-3.11-16.6a35.48,35.48,0,0,0-3.62-10.8c-2.14-4-4.23-8-4.84-12.53-.5-3.68-.68-7.4-1-11.11-.08-1.14,0-2.29,0-3.56-1.44.12-.37.22-1.55.32-.27,0-.54.07-.81.09-5,.34-7.23-1.85-8.3-6.74a1.56,1.56,0,0,1,.8-1.83,11.31,11.31,0,0,1,2.22-1c.85-.27.52-.69.51-1.62a44.78,44.78,0,0,1,.08-6,14.81,14.81,0,0,1,4-7.71c.29-.33.57-.67.86-1,0,0,0-.07,0-.1-3.1-2.19-3.76-6-6-8.95a14.34,14.34,0,0,1,6.12,1.32c2,.91,1.81,2,3.71,3.07a1.64,1.64,0,0,0,1.59.27,3.06,3.06,0,0,1,.9-.18c1.4-.15,1.53-.24,1.54-1.65,0-1.19-.14-2.38-.12-3.57a16.34,16.34,0,0,1,.36-2.31,17.07,17.07,0,0,1,3,1.75,48.81,48.81,0,0,1,4.18,4.33,27.39,27.39,0,0,0,4.66,4.4c5.44,3.85,8.11,9.32,8.74,15.87a1.36,1.36,0,0,0,.87,1.3,6.74,6.74,0,0,1,3.12,3,39.91,39.91,0,0,0,9.71,11.5,48.23,48.23,0,0,1,11.32,13,54,54,0,0,1,5.3,11.34,16.11,16.11,0,0,0,2.12,3c3.4,3.66,2.78,11.27,1.87,16-.37,1.91-.65,3.84-1.2,5.7-1.23,4.25.35,7.16,1.86,11.22s2.32,8.18,3.36,11.82c.59,2.51.19,4.15,0,6.61-.41,3.89-3.07,7.79-5.56,9a17.16,17.16,0,0,1-9.59,2.2,49.77,49.77,0,0,1-28.92-10.81,6.69,6.69,0,0,1-1.88-2.62c-.69-1.62.33-2.84,2.08-2.53a10.53,10.53,0,0,1,2.87,1,84.91,84.91,0,0,0,16.2,6.72c4.35,1.16,8.86,2,13.33,1.12a5.48,5.48,0,0,0,4.72-4.61c.29-1.3.81-2.16.2-4.21a21.62,21.62,0,0,0-2.25-5.58c-.13-.24-.68-.36-1-.33-4.5.48-9,1.2-13.51,1.44-5.06.29-10.15.17-15.22.27a3.53,3.53,0,0,0-1.77.51C693.62,135.92,690.44,135.67,687.2,133.45Z"/>
      </g>
      <g id="KEYBOARD">
        <path id="KEYBOARD_PATH" d="M608.76,122.45l-4.53-10.88-.74-2.16a14,14,0,0,1-.85-5.23,9.85,9.85,0,0,1,1.9-5.71,15.28,15.28,0,0,1,6.27-4.89c6.14-2.61,12.28-5.23,18.43-7.81Q640.63,81,652,76.31a21.69,21.69,0,0,1,5.54-1.71,13.1,13.1,0,0,1,5.81.31,11,11,0,0,1,4.4,2.84,14.84,14.84,0,0,1,3.1,4.93q3.23,7.56,6.33,15.18a11.14,11.14,0,0,1,.86,3,11.45,11.45,0,0,1-3.64,9.79,27.73,27.73,0,0,1-2.63,2q-20.14,8.41-40.31,16.83c-2.37,1-4.77,1.92-7.19,2.82a9.09,9.09,0,0,1-2.62.56,12,12,0,0,1-5.64-1.05,10,10,0,0,1-4.72-4c-.77-1.32-1.32-2.76-2-4.14C609.15,123.27,609,122.86,608.76,122.45Zm23-7.91,1.75,4.19,24.55-10.26-1.75-4.19Zm-13.4,5.6a.55.55,0,0,0,0,.13c.27.65.56,1.29.82,1.94a2.31,2.31,0,0,0,3.14,1.2c2.14-.91,4.29-1.77,6.43-2.66.07,0,.13-.08.21-.12l-1.74-4.19Zm4.85-7c0-.13-.07-.23-.11-.34-.49-1.17-1-2.34-1.46-3.53-.12-.3-.26-.33-.56-.2-2,.84-4,1.66-5.92,2.48l-.36.17,1.75,4.2ZM626,107l1.75,4.19,6.66-2.79-1.75-4.19Zm.89-10.31-6.66,2.78,1.74,4.18,6.67-2.78Zm22.38-9.36-6.67,2.79,1.74,4.19L651,91.53ZM638.09,92c-2.26,1-6.37,1.82-6.67,2.79s1.16,2.79,1.74,4.17l6.67-2.78Zm7.49,11.73-1.74-4.17-.14,0-6.31,2.62c-.27.11-.19.26-.12.43.38.91.76,1.81,1.13,2.72.17.38.33.77.5,1.18Zm4.54-1.87,6.43-2.68c.27-.12.21-.26.13-.43-.43-1-.85-2-1.28-3.07-.11-.27-.22-.54-.35-.83l-6.68,2.79Zm17.47-2.28a2.37,2.37,0,0,0-.32.08c-2,.85-4.1,1.72-6.15,2.56-.29.12-.27.25-.18.47.5,1.19,1,2.38,1.49,3.56a2.64,2.64,0,0,0,.15.29.54.54,0,0,0,.15,0c1.55-.65,3.11-1.29,4.64-2a2.1,2.1,0,0,0,1.16-2.19C668.29,101.43,667.91,100.53,667.59,99.6Zm-5.41-12.74c-.34-.8-.6-1.57-1-2.29a2.2,2.2,0,0,0-2.91-1c-.72.26-1.42.56-2.13.86s-1.59.66-2.4,1l1.75,4.2Zm3.55,8.48L664,91.15,659.55,93l1.75,4.19Zm-50,6-2.32,1a2.31,2.31,0,0,0-1.26,3c.31.68.58,1.37.87,2.07l4.45-1.86Z"/>
      </g>
    </g>
    <g id="CHAR">
      <path id="K" d="M51.92,94.14V118q0,7.33-4.3,11a15.44,15.44,0,0,1-10.34,3.66A15.67,15.67,0,0,1,26.88,129q-4.38-3.68-4.38-11V40.54q0-7.32,4.38-11a15.67,15.67,0,0,1,10.4-3.66A15.07,15.07,0,0,1,47.62,29.7q4.31,3.81,4.3,10.84V64.4l24-33.48a21.3,21.3,0,0,1,5.24-4.17,12.89,12.89,0,0,1,6.24-1.44,14.26,14.26,0,0,1,5.81,1.23,15.58,15.58,0,0,1,4.88,3.3,17.66,17.66,0,0,1,3.38,4.74,12.88,12.88,0,0,1,1.29,5.68,13.2,13.2,0,0,1-3.3,9.05L74,78.77l25.41,29.88A15.7,15.7,0,0,1,103,118a12.4,12.4,0,0,1-1.36,5.61,16.46,16.46,0,0,1-3.52,4.74,17.14,17.14,0,0,1-4.95,3.23,13.92,13.92,0,0,1-5.67,1.22,13.82,13.82,0,0,1-11.33-5.74Z"/>
      <path id="E" d="M128,132.79q-13.9,0-13.9-14.8V40.54q0-14.79,13.9-14.8h53.73q6.68,0,10.35,4.39a15.63,15.63,0,0,1,3.68,10.41A15.9,15.9,0,0,1,192.11,51q-3.68,4.45-10.35,4.46H139.93V65.55h43.19q5.73,0,9.06,3.37t3.34,10.28c0,4.59-1.11,7.09-3.34,9.49a11.77,11.77,0,0,1-9.06,3.59H139.93v10.77H182q6.67,0,10.42,4.45A15.78,15.78,0,0,1,196.2,118a15.49,15.49,0,0,1-3.75,10.42q-3.73,4.38-10.42,4.38Z"/>
      <path id="Y" d="M231.65,86.38,207.83,48.3a13.26,13.26,0,0,1-1.8-4.09,16.64,16.64,0,0,1-.5-3.81A12.26,12.26,0,0,1,206.82,35a16.67,16.67,0,0,1,3.45-4.74,16.37,16.37,0,0,1,4.95-3.3A14.26,14.26,0,0,1,221,25.74a13.06,13.06,0,0,1,6.74,1.87,15.81,15.81,0,0,1,5.46,5.75l13.06,22.42,13.06-22.42q4.44-7.62,12.2-7.62A14.3,14.3,0,0,1,277.36,27a16.37,16.37,0,0,1,4.95,3.3A16.67,16.67,0,0,1,285.76,35a12.26,12.26,0,0,1,1.29,5.39,14.19,14.19,0,0,1-.58,3.81,17.39,17.39,0,0,1-1.72,4.09L261.07,86.38v31.76q0,7.32-4.3,11a15.44,15.44,0,0,1-10.34,3.66,15.67,15.67,0,0,1-10.4-3.66q-4.38-3.66-4.38-11Z"/>
      <path id="P" d="M327.08,94.14v23.42q0,15.24-14.92,15.23-7.76,0-11.13-3.73t-3.37-11.5V82.5q0-9,4-13.58t12.63-4.52h37.17q6,0,6-4.46t-6-4.45H311.87q-6.89,0-10.62-3.74t-3.73-11.21q0-7.32,3.37-11.06t10.84-3.74H349.9q33.3,0,33.3,34.2T350,94.14Z"/>
      <path id="O" d="M499.3,78.91a53.18,53.18,0,0,1-4.3,21.41,54.74,54.74,0,0,1-29.21,29,54.61,54.61,0,0,1-59.85-11.64,55.43,55.43,0,0,1-11.69-17.31,55.16,55.16,0,0,1,0-42.75,54.92,54.92,0,0,1,29-29.1,54.66,54.66,0,0,1,42.55,0,56.21,56.21,0,0,1,17.44,11.72A54.72,54.72,0,0,1,495,57.57,53.33,53.33,0,0,1,499.3,78.91Zm-29.71.29a24.38,24.38,0,0,0-1.93-9.7,24.71,24.71,0,0,0-13.21-13.22,24.66,24.66,0,0,0-27.19,5.31A25.51,25.51,0,0,0,422,69.5a25.22,25.22,0,0,0,0,19.4A24.26,24.26,0,0,0,435.08,102a25.15,25.15,0,0,0,19.37,0,25.52,25.52,0,0,0,7.9-5.24,24.38,24.38,0,0,0,7.24-17.53Z"/>
      <path id="N" d="M565.46,126.33l-25.69-38.8V118q0,7.33-4.37,11A15.72,15.72,0,0,1,525,132.65,15.41,15.41,0,0,1,514.66,129q-4.3-3.68-4.31-11V40.54q0-7,4.31-10.84A15,15,0,0,1,525,25.89a15.71,15.71,0,0,1,7.25,1.51,11.33,11.33,0,0,1,4.81,5.1l26.69,40.66V40.54A15.42,15.42,0,0,1,565,34.22a14,14,0,0,1,3.23-4.6,13.37,13.37,0,0,1,4.66-2.8,17.07,17.07,0,0,1,5.67-.93,15.72,15.72,0,0,1,10.41,3.66q4.38,3.66,4.38,11V118q0,7.33-4.38,11a15.72,15.72,0,0,1-10.41,3.66,16.35,16.35,0,0,1-5.16-.72,13.58,13.58,0,0,1-3.66-1.8,13.28,13.28,0,0,1-2.44-2.15c-.63-.72-1.13-1.32-1.51-1.8Z"/>
    </g>
  </g>
</svg>