<?xml version="1.0" encoding="utf-8"?>
<!-- Generator: Adobe Illustrator 24.0.1, SVG Export Plug-In . SVG Version: 6.00 Build 0)  -->
<svg version="1.1" id="ALL" xmlns="http://www.w3.org/2000/svg" xmlns:xlink="http://www.w3.org/1999/xlink" x="0px" y="0px"
	 viewBox="0 0 750 155" style="enable-background:new 0 0 750 155;" xml:space="preserve">
<style type="text/css">
	.st0{fill:#F4F4F4;}
</style>
<title>KEYPON</title>
<g id="MAIN">
	<g id="IMG">
		<g id="CAT">
			<path id="CAT_PATH" class="st0" d="M687.2,133.4c-1.7,1.2-3.8,1.8-5.6,0.7c-2-1-2.8-3.4-1.8-5.4c0.2-0.3,0.4-0.6,0.6-0.9
				c0.8-1.1,1.8-2.1,2.9-3c0.7-0.6,2.2-2.1,2.2-3c0.1-2.8-0.2-5.5-0.8-8.2c-1.1-5.9-2-10.7-3.1-16.6c-0.6-3.8-1.8-7.4-3.6-10.8
				c-2.1-4-4.2-8-4.8-12.5c-0.5-3.7-0.7-7.4-1-11.1c-0.1-1.1,0-2.3,0-3.6c-1.4,0.1-0.4,0.2-1.5,0.3c-0.3,0-0.5,0.1-0.8,0.1
				c-5,0.3-7.2-1.8-8.3-6.7c-0.2-0.7,0.1-1.5,0.8-1.8c0.7-0.4,1.4-0.7,2.2-1c0.8-0.3,0.5-0.7,0.5-1.6c-0.1-2-0.1-4,0.1-6
				c0.5-2.9,1.9-5.6,4-7.7c0.3-0.3,0.6-0.7,0.9-1c0,0,0-0.1,0-0.1c-3.1-2.2-3.8-6-6-9c2.1,0,4.2,0.4,6.1,1.3c2,0.9,1.8,2,3.7,3.1
				c0.4,0.4,1,0.5,1.6,0.3c0.3-0.1,0.6-0.2,0.9-0.2c1.4-0.1,1.5-0.2,1.5-1.6c0-1.2-0.1-2.4-0.1-3.6c0.1-0.8,0.2-1.5,0.4-2.3
				c1.1,0.5,2.1,1.1,3,1.8c1.5,1.4,2.9,2.8,4.2,4.3c1.4,1.6,2.9,3.1,4.7,4.4c5.4,3.8,8.1,9.3,8.7,15.9c0,0.6,0.3,1.1,0.9,1.3
				c1.3,0.6,2.4,1.7,3.1,3c2.5,4.4,5.8,8.3,9.7,11.5c4.5,3.6,8.4,8,11.3,13c2.2,3.6,4,7.4,5.3,11.3c0.6,1.1,1.3,2.1,2.1,3
				c3.4,3.7,2.8,11.3,1.9,16c-0.4,1.9-0.7,3.8-1.2,5.7c-1.2,4.2,0.3,7.2,1.9,11.2s2.3,8.2,3.4,11.8c0.6,2.5,0.2,4.1,0,6.6
				c-0.4,3.9-3.1,7.8-5.6,9c-2.9,1.7-6.2,2.4-9.6,2.2c-10.5-0.4-20.7-4.2-28.9-10.8c-0.8-0.7-1.5-1.6-1.9-2.6
				c-0.7-1.6,0.3-2.8,2.1-2.5c1,0.2,2,0.5,2.9,1c5.2,2.8,10.6,5,16.2,6.7c4.3,1.2,8.9,2,13.3,1.1c2.4-0.3,4.4-2.2,4.7-4.6
				c0.3-1.3,0.8-2.2,0.2-4.2c-0.5-2-1.2-3.8-2.2-5.6c-0.1-0.2-0.7-0.4-1-0.3c-4.5,0.5-9,1.2-13.5,1.4c-5.1,0.3-10.2,0.2-15.2,0.3
				c-0.6,0-1.2,0.2-1.8,0.5C693.6,135.9,690.4,135.7,687.2,133.4z"/>
		</g>
		<g id="KEYBOARD">
			<path id="KEYBOARD_PATH" class="st0" d="M608.8,122.4l-4.5-10.9l-0.7-2.2c-0.6-1.7-0.9-3.4-0.8-5.2c0-2.1,0.7-4.1,1.9-5.7
				c1.6-2.2,3.8-3.8,6.3-4.9c6.1-2.6,12.3-5.2,18.4-7.8c7.6-3.2,15.2-6.3,22.8-9.5c1.8-0.8,3.6-1.4,5.5-1.7c1.9-0.3,3.9-0.2,5.8,0.3
				c1.7,0.6,3.2,1.6,4.4,2.8c1.3,1.4,2.4,3.1,3.1,4.9c2.2,5,4.3,10.1,6.3,15.2c0.4,1,0.7,2,0.9,3c0.4,3.7-0.9,7.3-3.6,9.8
				c-0.8,0.7-1.7,1.4-2.6,2c-13.4,5.6-26.9,11.2-40.3,16.8c-2.4,1-4.8,1.9-7.2,2.8c-0.8,0.3-1.7,0.5-2.6,0.6
				c-1.9,0.1-3.9-0.2-5.6-1.1c-2-0.8-3.6-2.2-4.7-4c-0.8-1.3-1.3-2.8-2-4.1C609.2,123.3,609,122.9,608.8,122.4z M631.8,114.5
				l1.8,4.2l24.5-10.3l-1.8-4.2L631.8,114.5z M618.4,120.1c0,0,0,0.1,0,0.1c0.3,0.7,0.6,1.3,0.8,1.9c0.5,1.2,1.8,1.7,3,1.3
				c0,0,0.1,0,0.1-0.1c2.1-0.9,4.3-1.8,6.4-2.7c0.1,0,0.1-0.1,0.2-0.1l-1.7-4.2L618.4,120.1z M623.2,113.1c0-0.1-0.1-0.2-0.1-0.3
				c-0.5-1.2-1-2.3-1.5-3.5c-0.1-0.3-0.3-0.3-0.6-0.2c-2,0.8-4,1.7-5.9,2.5l-0.4,0.2l1.8,4.2L623.2,113.1z M626,107l1.8,4.2l6.7-2.8
				l-1.8-4.2L626,107z M626.9,96.7l-6.7,2.8l1.7,4.2l6.7-2.8L626.9,96.7z M649.3,87.3l-6.7,2.8l1.7,4.2l6.7-2.8L649.3,87.3z
				 M638.1,92c-2.3,1-6.4,1.8-6.7,2.8s1.2,2.8,1.7,4.2l6.7-2.8L638.1,92z M645.6,103.7l-1.7-4.2h-0.1l-6.3,2.6
				c-0.3,0.1-0.2,0.3-0.1,0.4c0.4,0.9,0.8,1.8,1.1,2.7c0.2,0.4,0.3,0.8,0.5,1.2L645.6,103.7z M650.1,101.9l6.4-2.7
				c0.3-0.1,0.2-0.3,0.1-0.4c-0.4-1-0.8-2-1.3-3.1c-0.1-0.3-0.2-0.5-0.3-0.8l-6.7,2.8L650.1,101.9z M667.6,99.6
				c-0.1,0-0.2,0-0.3,0.1c-2,0.8-4.1,1.7-6.2,2.6c-0.3,0.1-0.3,0.2-0.2,0.5c0.5,1.2,1,2.4,1.5,3.6c0,0.1,0.1,0.2,0.2,0.3
				c0,0,0.1,0,0.2,0c1.5-0.7,3.1-1.3,4.6-2c0.8-0.4,1.3-1.3,1.2-2.2C668.3,101.4,667.9,100.5,667.6,99.6L667.6,99.6z M662.2,86.8
				c-0.3-0.8-0.6-1.6-1-2.3c-0.5-1.1-1.8-1.5-2.9-1c-0.7,0.3-1.4,0.6-2.1,0.9s-1.6,0.7-2.4,1l1.8,4.2L662.2,86.8z M665.7,95.3
				l-1.7-4.2l-4.5,1.8l1.8,4.2L665.7,95.3z M615.7,101.3l-2.3,1c-1.2,0.5-1.7,1.8-1.3,3c0.3,0.7,0.6,1.4,0.9,2.1l4.5-1.9
				L615.7,101.3z"/>
		</g>
	</g>
	<g id="CHAR">
		<path id="K" class="st0" d="M51.9,94.1V118c0,4.9-1.4,8.6-4.3,11c-2.9,2.4-6.6,3.7-10.3,3.7c-3.8,0.1-7.5-1.2-10.4-3.7
			c-2.9-2.5-4.4-6.1-4.4-11V40.5c0-4.9,1.5-8.5,4.4-11c2.9-2.4,6.6-3.7,10.4-3.7c3.8-0.1,7.5,1.3,10.3,3.8c2.9,2.5,4.3,6.2,4.3,10.8
			v23.9l24-33.5c1.5-1.7,3.3-3.1,5.2-4.2c1.9-1,4.1-1.5,6.2-1.4c2,0,4,0.4,5.8,1.2c1.8,0.8,3.5,1.9,4.9,3.3c1.4,1.4,2.5,3,3.4,4.7
			c0.9,1.8,1.3,3.7,1.3,5.7c0.1,3.3-1.1,6.6-3.3,9L74,78.8l25.4,29.9c2.2,2.6,3.4,5.9,3.6,9.4c0,2-0.5,3.9-1.4,5.6
			c-0.9,1.8-2.1,3.4-3.5,4.7c-1.5,1.4-3.1,2.4-4.9,3.2c-1.8,0.8-3.7,1.2-5.7,1.2c-4.5,0-8.7-2.1-11.3-5.7L51.9,94.1z"/>
		<path id="E" class="st0" d="M128,132.8c-9.3,0-13.9-4.9-13.9-14.8V40.5c0-9.9,4.6-14.8,13.9-14.8h53.7c4.5,0,7.9,1.5,10.4,4.4
			c2.5,2.9,3.8,6.6,3.7,10.4c0.1,3.8-1.2,7.5-3.6,10.5c-2.5,3-5.9,4.5-10.4,4.5h-41.8v10.1h43.2c3.8,0,6.8,1.1,9.1,3.4
			c2.2,2.2,3.3,5.7,3.3,10.3c0,4.6-1.1,7.1-3.3,9.5c-2.4,2.4-5.7,3.8-9.1,3.6h-43.2v10.8H182c4.4,0,7.9,1.5,10.4,4.4
			c2.5,2.9,3.8,6.7,3.8,10.5c0.1,3.8-1.3,7.5-3.8,10.4c-2.5,2.9-6,4.4-10.4,4.4L128,132.8z"/>
		<path id="Y" class="st0" d="M231.6,86.4l-23.8-38.1c-0.8-1.3-1.4-2.6-1.8-4.1c-0.3-1.2-0.5-2.5-0.5-3.8c0-1.9,0.5-3.7,1.3-5.4
			c0.9-1.8,2-3.4,3.4-4.7c1.4-1.4,3.1-2.5,4.9-3.3c1.8-0.8,3.8-1.2,5.8-1.2c2.4,0,4.7,0.6,6.7,1.9c2.3,1.4,4.2,3.4,5.5,5.8
			l13.1,22.4l13.1-22.4c3-5.1,7-7.6,12.2-7.6c2,0,4,0.4,5.8,1.3c1.8,0.8,3.5,1.9,5,3.3c1.4,1.4,2.6,2.9,3.5,4.7
			c0.8,1.7,1.3,3.5,1.3,5.4c0,1.3-0.2,2.6-0.6,3.8c-0.4,1.4-1,2.8-1.7,4.1l-23.7,38.1v31.8c0,4.9-1.4,8.5-4.3,11
			c-2.9,2.4-6.6,3.7-10.3,3.7c-3.8,0.1-7.5-1.2-10.4-3.7c-2.9-2.4-4.4-6.1-4.4-11L231.6,86.4z"/>
		<path id="P" class="st0" d="M327.1,94.1v23.4c0,10.2-5,15.2-14.9,15.2c-5.2,0-8.9-1.2-11.1-3.7s-3.4-6.3-3.4-11.5V82.5
			c0-6,1.3-10.5,4-13.6s6.9-4.6,12.6-4.5h37.2c4,0,6-1.5,6-4.5s-2-4.5-6-4.5h-39.6c-4.6,0-8.1-1.2-10.6-3.7s-3.7-6.2-3.7-11.2
			c0-4.9,1.1-8.6,3.4-11.1c2.2-2.5,5.9-3.7,10.8-3.7h38.2c22.2,0,33.3,11.4,33.3,34.2S372.1,94.1,350,94.1H327.1z"/>
		<path id="O" class="st0" d="M499.3,78.9c0.1,7.4-1.4,14.6-4.3,21.4c-5.6,13.1-16.1,23.5-29.2,29c-20.5,8.7-44.1,4.1-59.9-11.6
			c-5-5-8.9-10.9-11.7-17.3c-5.7-13.7-5.7-29.1,0-42.8c5.5-13.1,15.9-23.5,29-29.1c13.6-5.7,28.9-5.7,42.5,0
			c6.5,2.8,12.4,6.8,17.4,11.7c5,5,9,10.9,11.8,17.3C497.9,64.3,499.3,71.6,499.3,78.9z M469.6,79.2c0-3.3-0.6-6.6-1.9-9.7
			c-2.5-6-7.2-10.7-13.2-13.2c-9.3-4-20.1-1.9-27.2,5.3c-2.2,2.3-4,5-5.3,7.9c-2.6,6.2-2.6,13.2,0,19.4c2.5,5.9,7.2,10.6,13.1,13.1
			c6.2,2.6,13.2,2.6,19.4,0c2.9-1.2,5.6-3,7.9-5.2C467,92.1,469.6,85.8,469.6,79.2L469.6,79.2z"/>
		<path id="N" class="st0" d="M565.5,126.3l-25.7-38.8V118c0,4.9-1.5,8.6-4.4,11c-2.9,2.4-6.6,3.7-10.4,3.6
			c-3.8,0.1-7.5-1.2-10.3-3.6c-2.9-2.5-4.3-6.1-4.3-11V40.5c0-4.7,1.4-8.3,4.3-10.8c2.8-2.5,6.5-3.9,10.3-3.8c2.5-0.1,5,0.4,7.2,1.5
			c2.1,1.1,3.8,2.9,4.8,5.1l26.7,40.7V40.5c0-2.2,0.4-4.3,1.2-6.3c0.8-1.7,1.9-3.3,3.2-4.6c1.3-1.2,2.9-2.2,4.7-2.8
			c1.8-0.6,3.7-0.9,5.7-0.9c3.8-0.1,7.5,1.2,10.4,3.7c2.9,2.4,4.4,6.1,4.4,11V118c0,4.9-1.5,8.6-4.4,11c-2.9,2.4-6.6,3.7-10.4,3.7
			c-1.7,0-3.5-0.2-5.2-0.7c-1.3-0.4-2.5-1-3.7-1.8c-0.9-0.6-1.7-1.3-2.4-2.2c-0.6-0.7-1.1-1.3-1.5-1.8L565.5,126.3z"/>
	</g>
</g>
</svg>
